# xmcd
#
# Track frame offsets:
#  150
#  18218
#  33555
#  52615
#  71973
#  92841
#  112165
#  129303
#  148843
#  166919
#
# Disc length: 2419 seconds
#
# Revision: 0
# Processed by: cddbd v1.5.2PL0 Copyright (c) Steve Scherf et al.
# Submitted via: Collectorz.com_Music_Collector 6.11
#
DISCID=8709710a
DTITLE=Various Artist - 1991 Rock On Disc 2
DYEAR=1999
DGENRE=90's Compilations
TTITLE0=Big Audio Dynamite - Rush
TTITLE1=Noiseworks - Hot Chilli Woman
TTITLE2=Daryl Braithwaite - The Horses
TTITLE3=Lisa Stansfield - Change
TTITLE4=Snap - Snap Megamix
TTITLE5=Rick Astley - Cry For Help
TTITLE6=Will To Power - I'm Not In Love
TTITLE7=Living Colour - Love Rears Its Ugly Head
TTITLE8=Black Sorrows - Never Let Me Go
TTITLE9=Rat cat - Don't Go Now
EXTD=
EXTT0=
EXTT1=
EXTT2=
EXTT3=
EXTT4=
EXTT5=
EXTT6=
EXTT7=
EXTT8=
EXTT9=
PLAYORDER=
